<svg width="67" height="67" viewBox="0 0 67 67" fill="none" xmlns="http://www.w3.org/2000/svg">
<path d="M58.0548 44.2323V22.1162C58.0538 21.1466 57.7979 20.1943 57.3127 19.3549C56.8274 18.5154 56.13 17.8183 55.2903 17.3335L35.9387 6.27548C35.0982 5.7902 34.1447 5.53473 33.1742 5.53473C32.2036 5.53473 31.2502 5.7902 30.4097 6.27548L11.0581 17.3335C10.2184 17.8183 9.52094 18.5154 9.03571 19.3549C8.55049 20.1943 8.29454 21.1466 8.29355 22.1162V44.2323C8.29454 45.2019 8.55049 46.1542 9.03571 46.9936C9.52094 47.833 10.2184 48.5301 11.0581 49.0149L30.4097 60.073C31.2502 60.5582 32.2036 60.8137 33.1742 60.8137C34.1447 60.8137 35.0982 60.5582 35.9387 60.073L55.2903 49.0149C56.13 48.5301 56.8274 47.833 57.3127 46.9936C57.7979 46.1542 58.0538 45.2019 58.0548 44.2323Z" stroke="#366EFF" stroke-width="2" stroke-linecap="round" stroke-linejoin="round"/>
<path d="M20.7339 11.6387L33.1742 18.8264L45.6145 11.6387" stroke="#366EFF" stroke-width="2" stroke-linecap="round" stroke-linejoin="round"/>
<path d="M20.7339 54.7098V40.3619L8.29355 33.1742" stroke="#366EFF" stroke-width="2" stroke-linecap="round" stroke-linejoin="round"/>
<path d="M58.0548 33.1742L45.6145 40.3619V54.7098" stroke="#366EFF" stroke-width="2" stroke-linecap="round" stroke-linejoin="round"/>
<path d="M9.04001 19.2411L33.1742 33.2019L57.3085 19.2411" stroke="#366EFF" stroke-width="2" stroke-linecap="round" stroke-linejoin="round"/>
<path d="M33.1742 61.0405V33.1742" stroke="#366EFF" stroke-width="2" stroke-linecap="round" stroke-linejoin="round"/>
</svg>
