<svg width="66" height="66" viewBox="0 0 66 66" fill="none" xmlns="http://www.w3.org/2000/svg">
<path d="M49.5 11H16.5C13.4624 11 11 13.4624 11 16.5V49.5C11 52.5376 13.4624 55 16.5 55H49.5C52.5376 55 55 52.5376 55 49.5V16.5C55 13.4624 52.5376 11 49.5 11Z" stroke="#EAAC0C" stroke-width="2" stroke-linecap="round" stroke-linejoin="round"/>
<path d="M41.25 24.75H24.75V41.25H41.25V24.75Z" stroke="#EAAC0C" stroke-width="2" stroke-linecap="round" stroke-linejoin="round"/>
<path d="M24.75 2.75V11" stroke="#EAAC0C" stroke-width="2" stroke-linecap="round" stroke-linejoin="round"/>
<path d="M41.25 2.75V11" stroke="#EAAC0C" stroke-width="2" stroke-linecap="round" stroke-linejoin="round"/>
<path d="M24.75 55V63.25" stroke="#EAAC0C" stroke-width="2" stroke-linecap="round" stroke-linejoin="round"/>
<path d="M41.25 55V63.25" stroke="#EAAC0C" stroke-width="2" stroke-linecap="round" stroke-linejoin="round"/>
<path d="M55 24.75H63.25" stroke="#EAAC0C" stroke-width="2" stroke-linecap="round" stroke-linejoin="round"/>
<path d="M55 38.5H63.25" stroke="#EAAC0C" stroke-width="2" stroke-linecap="round" stroke-linejoin="round"/>
<path d="M2.75 24.75H11" stroke="#EAAC0C" stroke-width="2" stroke-linecap="round" stroke-linejoin="round"/>
<path d="M2.75 38.5H11" stroke="#EAAC0C" stroke-width="2" stroke-linecap="round" stroke-linejoin="round"/>
</svg>
